<svg width="294" height="35" viewBox="0 0 294 35" xmlns="http://www.w3.org/2000/svg"><title>logo/AS_Logo_neg_RGB-fr</title><desc>Created with Sketch.</desc><defs><linearGradient x1="14.014%" y1="49.046%" x2="75.737%" y2="50.34%" id="a"><stop stop-color="#044966" offset="0%"/><stop stop-color="#026EA0" offset="100%"/></linearGradient><linearGradient x1="17.793%" y1="37.178%" x2="66.742%" y2="10.366%" id="b"><stop stop-color="#044966" offset="0%"/><stop stop-color="#026EA0" offset="100%"/></linearGradient><linearGradient x1="86.681%" y1="50.711%" x2="28.032%" y2="49.932%" id="c"><stop stop-color="#026EA0" offset="0%"/><stop stop-color="#38BFDF" offset="100%"/></linearGradient></defs><g fill="none"><g><path d="M26.265 4.777c-2.149 0-4.169.836-5.688 2.356l-1.962 1.962-1.962-1.962c-1.519-1.52-3.538-2.356-5.688-2.356-.498 0-.989.047-1.469.135-1.359 1.115-2.163 2.781-2.163 4.547 0 4.201 3.518 6.284 4.972 7.409-.737-.738-.737-1.939 0-2.676.358-.358.833-.554 1.338-.554.505 0 .981.197 1.338.554l3.634 3.601 6.313-6.312c3.018-3.018 4.934-3.36 7.919-3.455l-.895-.895c-1.519-1.52-3.539-2.356-5.688-2.356z" fill="url(#a)"/><path d="M10.965 4.777c-.498 0-.989.047-1.469.135-1.359 1.115-2.163 2.781-2.163 4.547 0 4.201 3.518 6.284 4.972 7.409l-.117-.144-2.099-2.1c-1.944-1.943-1.944-5.093 0-7.036 1.916-1.916 5-1.934 6.949-.072l-.386-.385c-1.519-1.52-3.538-2.356-5.688-2.356z" id="Fill-36" fill="url(#b)"/><path d="M5.149 7.265c-1.434 1.499-2.133 3.425-2.149 5.371v.135c.017 2.162.876 4.337 2.505 5.967l13.11 13.11 13.261-13.263c1.308-1.307 3.145-1.297 4.439-.701.088-.543.11-1.098.044-1.656l-.007-.054c-.403-3.147-3.962-4.918-6.779-3.458-.71.368-1.377.85-1.973 1.445l-8.986 8.987s-7.491-7.454-8.987-8.987c-1.496-1.533-2.302-2.861-2.295-4.699.007-1.767.804-3.432 2.163-4.547-1.647.302-3.16 1.112-4.347 2.352" fill="url(#c)"/></g><g fill="#fff"><path d="M43 25.844v-.86h.261c.233 0 .452-.017.655-.051.203-.033.382-.102.536-.205.153-.103.274-.251.36-.446.086-.193.13-.45.13-.77v-9.97c0-.32-.044-.577-.13-.77-.086-.194-.207-.342-.36-.446-.154-.103-.333-.171-.536-.206-.203-.033-.422-.049-.655-.049h-.261v-.861h5.966v.861h-.27c-.227 0-.442.015-.646.044-.203.031-.382.096-.535.196-.154.1-.276.242-.366.426-.089.183-.134.424-.134.725v11.361h4.044c.306 0 .568-.055.785-.165.217-.11.395-.253.536-.43.14-.177.248-.376.325-.596.076-.221.128-.44.155-.661l.201-1.531h1.07l-.14 4.404h-10.991z"/><path d="M59.605 24.824h3.953c.327 0 .606-.045.836-.136.231-.09.422-.211.576-.365.154-.153.274-.332.361-.535.086-.203.146-.419.179-.646l.141-.881h1.07l-.139 3.584h-10.992v-.861h.261c.227 0 .441-.015.646-.045.203-.03.381-.092.535-.185.153-.094.275-.232.365-.415.091-.184.136-.426.136-.727v-10.069c0-.321-.044-.577-.13-.771-.087-.193-.207-.342-.361-.445-.154-.104-.333-.172-.536-.206-.203-.033-.422-.05-.655-.05h-.261v-.86h10.33l.101 3.583h-1.062l-.099-.881c-.027-.227-.079-.442-.155-.646-.078-.203-.188-.381-.33-.535-.144-.153-.325-.275-.541-.365-.217-.091-.479-.136-.786-.136h-3.443v5.455h4.944v1.001h-4.944v6.137z"/><path d="M76.882 19.178h1.091c.621 0 1.151-.065 1.592-.195.44-.13.8-.341 1.081-.631.28-.29.485-.664.615-1.121.131-.457.195-1.009.195-1.657 0-.574-.056-1.073-.17-1.497-.113-.422-.297-.775-.55-1.055-.254-.281-.583-.489-.986-.626-.404-.137-.896-.205-1.476-.205h-1.392v6.987zm-4.014 6.666v-.86h.26c.233 0 .452-.017.656-.051.203-.033.382-.102.535-.205.154-.103.274-.251.361-.446.087-.193.13-.45.13-.77v-10.05c0-.301-.045-.542-.135-.725-.09-.184-.212-.326-.365-.426-.155-.1-.332-.165-.536-.195-.204-.03-.419-.045-.646-.045h-.26v-.861h5.755c.862 0 1.609.099 2.242.295.635.197 1.159.481 1.573.851.413.371.721.819.925 1.346.204.528.305 1.125.305 1.792 0 .608-.095 1.191-.285 1.751-.189.561-.502 1.057-.936 1.488-.433.429-1.001.773-1.702 1.03-.7.258-1.557.386-2.572.386h-1.291v3.463c0 .3.045.543.135.726.091.184.212.321.365.415.154.094.332.155.536.186.203.029.419.045.646.045h.68v.86h-6.376z"/><path d="M90.48 16.336c-.214-.607-.409-1.177-.586-1.707s-.322-1.042-.435-1.536c-.047.247-.102.485-.166.716l-.205.705c-.073.24-.157.492-.25.756l-.32.876-1.392 3.773h4.625l-1.271-3.583zm-3.744 4.614l-.78 2.153c-.061.16-.108.318-.141.475-.033.156-.05.292-.05.405 0 .347.111.601.335.761.224.16.567.24 1.026.24h.471v.861h-5.005v-.861h.391c.2 0 .37-.021.51-.065.14-.043.266-.125.381-.245.113-.12.221-.283.325-.49.103-.207.219-.474.345-.801l4.544-12.172h1.602l4.635 12.682c.08.214.161.39.245.531.083.14.181.252.295.335.113.084.244.141.39.175.147.034.321.05.521.05h.27v.861h-5.635v-.861h.47c.821 0 1.232-.327 1.232-.981 0-.113-.016-.23-.046-.351l-.125-.41-.82-2.292h-5.386z"/><path d="M102.145 18.428h1.441c.601 0 1.101-.066 1.501-.2.401-.134.721-.334.961-.601.241-.266.412-.6.516-1.001.103-.4.155-.867.155-1.401 0-.547-.056-1.013-.17-1.397-.113-.383-.297-.697-.55-.94-.254-.244-.583-.421-.986-.531-.404-.11-.896-.165-1.476-.165h-1.392v6.236zm6.566 4.915c.347.547.684.957 1.011 1.231.327.274.707.411 1.142.411h.059v.86h-.29c-.64 0-1.166-.023-1.576-.07-.411-.046-.76-.136-1.047-.27-.286-.134-.532-.32-.735-.56-.203-.241-.422-.554-.655-.942l-2.774-4.614h-1.701v4.224c0 .3.045.543.135.726.091.184.212.321.365.415.154.094.332.155.536.186.203.029.419.045.646.045h.27v.86h-5.966v-.86h.26c.227 0 .442-.016.646-.045.204-.031.381-.092.536-.186.153-.094.275-.231.365-.415.09-.183.135-.426.135-.726v-10.15c0-.301-.045-.542-.135-.725-.09-.184-.212-.326-.365-.426-.155-.1-.332-.165-.536-.196-.204-.029-.419-.044-.646-.044h-.26v-.861h5.515c1.775 0 3.097.328 3.964.986.868.658 1.302 1.646 1.302 2.967 0 .548-.089 1.027-.266 1.437-.177.411-.408.765-.695 1.066-.287.3-.611.551-.971.751-.36.2-.721.361-1.081.481l2.812 4.444z"/><path d="M115.96 12.231v5.926h4.944v1.001h-4.944v4.354c0 .321.045.577.135.771.091.194.211.343.36.445.151.104.329.172.536.205.206.034.424.051.651.051h.68v.86h-6.376v-.86h.26c.227 0 .442-.016.646-.045.204-.03.381-.092.536-.186.153-.093.275-.231.365-.415.09-.183.135-.425.135-.726v-10.15c0-.3-.045-.542-.135-.725-.09-.184-.212-.325-.365-.426-.155-.1-.332-.165-.536-.195-.204-.03-.419-.045-.646-.045h-.26v-.861h10.33l.1 3.584h-1.061l-.1-.881c-.026-.234-.08-.453-.16-.656s-.196-.38-.345-.53c-.15-.15-.339-.27-.566-.36-.227-.091-.5-.136-.821-.136h-3.363z"/><path d="M129.343 16.336c-.214-.607-.409-1.177-.586-1.707s-.322-1.042-.435-1.536c-.047.247-.102.485-.166.716l-.205.705c-.073.24-.157.492-.25.756l-.32.876-1.392 3.773h4.625l-1.271-3.583zm-3.744 4.614l-.78 2.153c-.061.16-.108.318-.141.475-.033.156-.05.292-.05.405 0 .347.111.601.335.761.224.16.567.24 1.026.24h.471v.861h-5.005v-.861h.391c.2 0 .37-.021.51-.065.14-.043.266-.125.381-.245.113-.12.221-.283.325-.49.103-.207.219-.474.345-.801l4.544-12.172h1.602l4.635 12.682c.08.214.161.39.245.531.083.14.181.252.295.335.113.084.244.141.39.175.147.034.321.05.521.05h.27v.861h-5.635v-.861h.47c.821 0 1.232-.327 1.232-.981 0-.113-.016-.23-.046-.351l-.125-.41-.82-2.292h-5.386z"/><path d="M136.995 25.844v-.86h.261c.233 0 .452-.017.655-.051.203-.033.382-.102.536-.205.153-.103.274-.251.36-.446.086-.193.13-.45.13-.77v-9.97c0-.32-.044-.577-.13-.77-.086-.194-.207-.342-.36-.446-.154-.103-.333-.171-.536-.206-.203-.033-.422-.049-.655-.049h-.261v-.861h5.966v.861h-.27c-.227 0-.444.016-.651.049-.207.035-.385.103-.535.206-.151.104-.271.252-.361.446-.089.193-.134.45-.134.77v9.97c0 .32.045.577.134.77.09.195.21.343.361.446.15.103.328.172.535.205.207.034.424.051.651.051h.27v.86h-5.966z"/><path d="M151.106 23.512c0 .32.045.577.136.771.09.194.21.342.36.445.15.103.328.172.535.205.207.034.424.051.651.051h.47v.86h-6.376v-.86h.47c.228 0 .442-.016.647-.045.203-.031.381-.092.535-.186.153-.094.275-.231.365-.415.09-.183.135-.426.135-.726v-11.381h-1.961c-.301 0-.553.045-.756.135-.204.09-.371.212-.501.366-.13.153-.227.332-.29.535-.064.204-.108.419-.135.645l-.11.881h-1.062l.101-3.583h11.541l.1 3.583h-1.061l-.101-.881c-.026-.226-.073-.441-.139-.645-.067-.203-.164-.382-.29-.535-.127-.154-.294-.276-.501-.366-.207-.09-.464-.135-.771-.135h-1.992v11.281z"/><path d="M169.095 26.045c-1.187 0-2.224-.18-3.107-.54-.885-.36-1.62-.871-2.203-1.532-.584-.66-1.019-1.454-1.306-2.382-.287-.928-.431-1.955-.431-3.083 0-1.108.152-2.122.456-3.043.303-.921.757-1.712 1.362-2.372.603-.661 1.352-1.175 2.247-1.542.893-.366 1.931-.551 3.112-.551.762 0 1.424.059 1.987.176.564.117 1.034.278 1.411.485.377.207.659.45.846.731.188.28.281.584.281.911 0 .22-.051.419-.15.596-.101.176-.235.327-.405.45-.171.124-.371.218-.601.285-.23.067-.479.1-.746.1 0-.32-.047-.637-.141-.951-.092-.313-.246-.595-.46-.845-.214-.25-.494-.455-.84-.611-.347-.157-.771-.235-1.272-.235-.867 0-1.606.141-2.217.425-.61.284-1.109.698-1.496 1.241-.388.544-.668 1.215-.842 2.013-.172.796-.259 1.71-.259 2.737 0 1.02.089 1.929.27 2.723.18.793.474 1.46.881 2.001.406.541.934.952 1.581 1.232.647.28 1.438.42 2.373.42.394 0 .775-.02 1.146-.06.37-.04.699-.103.986-.19v-3.304c0-.3-.045-.542-.136-.725-.09-.183-.212-.324-.365-.42-.153-.097-.332-.162-.535-.196-.204-.033-.419-.049-.646-.049h-.08v-.862h5.325v.862h-.08c-.194 0-.377.016-.55.049-.174.034-.325.102-.451.205-.127.104-.227.254-.3.451-.074.197-.111.456-.111.776v3.684c-.686.32-1.394.556-2.121.71-.727.154-1.532.23-2.413.23"/><path d="M179.658 24.824h3.953c.327 0 .607-.045.836-.136.231-.09.422-.211.576-.365.154-.153.274-.332.361-.535.086-.203.146-.419.179-.646l.141-.881h1.071l-.14 3.584h-10.991v-.861h.26c.227 0 .442-.015.646-.045.203-.03.381-.092.536-.185.153-.094.274-.232.365-.415.09-.184.135-.426.135-.727v-10.069c0-.321-.044-.577-.13-.771-.087-.193-.207-.342-.361-.445-.154-.104-.332-.172-.536-.206-.203-.033-.422-.05-.655-.05h-.26v-.86h10.33l.1 3.583h-1.061l-.1-.881c-.026-.227-.078-.442-.155-.646-.078-.203-.187-.381-.33-.535-.144-.153-.325-.275-.541-.365-.217-.091-.479-.136-.786-.136h-3.443v5.455h4.944v1.001h-4.944v6.137z"/><path d="M199.115 25.844l-7.687-11.812v9.48c0 .32.044.577.135.77.09.195.21.343.361.446.149.103.328.172.535.205.207.034.424.051.65.051h.271v.86h-5.145v-.86h.26c.233 0 .452-.017.655-.051.204-.033.382-.102.536-.205.154-.103.274-.251.361-.446.086-.193.13-.45.13-.77v-10.05c0-.301-.045-.542-.135-.725-.091-.184-.212-.326-.365-.426-.155-.1-.333-.165-.537-.196-.203-.029-.419-.044-.645-.044h-.26v-.861h3.753l7.337 11.331v-9.079c0-.301-.045-.542-.135-.725-.09-.184-.212-.326-.365-.426-.153-.1-.332-.165-.535-.196-.204-.029-.419-.044-.647-.044h-.269v-.861h5.144v.861h-.259c-.235 0-.453.016-.657.049-.203.035-.382.103-.535.206-.153.104-.273.252-.36.446-.087.193-.13.45-.13.77v12.302h-1.462z"/><path d="M210.556 23.512c0 .32.045.577.136.771.09.194.21.342.36.445.15.103.328.172.535.205.207.034.424.051.651.051h.47v.86h-6.376v-.86h.47c.228 0 .442-.016.647-.045.203-.031.381-.092.535-.186.153-.094.275-.231.365-.415.09-.183.135-.426.135-.726v-11.381h-1.961c-.301 0-.553.045-.756.135-.204.09-.371.212-.501.366-.13.153-.227.332-.29.535-.064.204-.108.419-.135.645l-.11.881h-1.062l.101-3.583h11.541l.1 3.583h-1.061l-.101-.881c-.026-.226-.073-.441-.139-.645-.067-.203-.164-.382-.29-.535-.127-.154-.294-.276-.501-.366-.207-.09-.464-.135-.771-.135h-1.992v11.281z"/><path d="M216.662 25.844v-.86h.26c.233 0 .452-.017.655-.051.204-.033.382-.102.536-.205.153-.103.274-.251.361-.446.085-.193.129-.45.129-.77v-9.97c0-.32-.044-.577-.129-.77-.087-.194-.208-.342-.361-.446-.154-.103-.332-.171-.536-.206-.203-.033-.422-.049-.655-.049h-.26v-.861h5.965v.861h-.27c-.227 0-.442.015-.645.044-.204.031-.383.096-.536.196-.154.1-.276.242-.366.426-.089.183-.134.424-.134.725v11.361h4.044c.306 0 .568-.055.785-.165.217-.11.395-.253.536-.43.14-.177.248-.376.325-.596.076-.221.128-.44.155-.661l.201-1.531h1.071l-.141 4.404h-10.99z"/><path d="M233.266 24.824h3.953c.327 0 .607-.045.836-.136.231-.09.422-.211.576-.365.154-.153.274-.332.361-.535.086-.203.146-.419.179-.646l.141-.881h1.071l-.14 3.584h-10.991v-.861h.26c.227 0 .442-.015.646-.045.203-.03.381-.092.536-.185.153-.094.274-.232.365-.415.09-.184.135-.426.135-.727v-10.069c0-.321-.044-.577-.13-.771-.087-.193-.207-.342-.361-.445-.154-.104-.332-.172-.536-.206-.203-.033-.422-.05-.655-.05h-.26v-.86h10.33l.1 3.583h-1.061l-.1-.881c-.026-.227-.078-.442-.155-.646-.078-.203-.187-.381-.33-.535-.144-.153-.325-.275-.541-.365-.217-.091-.479-.136-.786-.136h-3.443v5.455h4.944v1.001h-4.944v6.137z"/><path d="M254.053 25.844v-.86h.07c.221 0 .419-.016.596-.045.177-.031.327-.091.45-.181.124-.09.222-.22.296-.391.073-.169.116-.395.13-.675v-10.951l-4.694 13.103h-1.112l-4.755-13.063v10.731c0 .32.034.577.101.77.066.195.165.343.295.446.13.103.287.172.471.205.183.034.388.051.615.051h.06v.86h-4.734v-.86h.26c.226 0 .442-.016.645-.045.203-.031.382-.092.536-.186.154-.094.275-.231.366-.415.09-.183.134-.426.134-.726v-10.15c0-.301-.044-.542-.134-.725-.091-.184-.212-.326-.366-.426-.154-.1-.333-.165-.536-.196-.203-.029-.419-.044-.645-.044h-.26v-.861h4.674l4.244 11.721 4.204-11.721h4.545v.861h-.261c-.233 0-.452.016-.655.049-.204.035-.382.103-.536.206-.153.104-.274.252-.359.446-.087.193-.131.45-.131.77v9.97c0 .32.044.577.131.77.085.195.206.343.359.446.154.103.332.172.536.205.203.034.422.051.655.051h.261v.86h-5.456z"/><path d="M268.475 16.336c-.214-.607-.409-1.177-.586-1.707s-.321-1.042-.435-1.536c-.046.247-.102.485-.166.716l-.205.705c-.073.24-.156.492-.25.756l-.32.876-1.392 3.773h4.625l-1.271-3.583zm-3.743 4.614l-.781 2.153c-.061.16-.107.318-.141.475-.033.156-.05.292-.05.405 0 .347.112.601.336.761.223.16.566.24 1.025.24h.471v.861h-5.005v-.861h.391c.2 0 .37-.021.51-.065.14-.043.267-.125.381-.245.113-.12.221-.283.325-.49.103-.207.219-.474.345-.801l4.544-12.172h1.602l4.635 12.682c.08.214.162.39.245.531.083.14.181.252.296.335.113.084.243.141.389.175.147.034.321.05.521.05h.27v.861h-5.635v-.861h.47c.821 0 1.232-.327 1.232-.981 0-.113-.016-.23-.045-.351l-.126-.41-.82-2.292h-5.385z"/><path d="M287.007 25.844l-7.687-11.812v9.48c0 .32.044.577.135.77.09.195.21.343.361.446.149.103.328.172.535.205.207.034.424.051.65.051h.271v.86h-5.145v-.86h.26c.233 0 .452-.017.655-.051.204-.033.382-.102.536-.205.154-.103.274-.251.361-.446.086-.193.13-.45.13-.77v-10.05c0-.301-.045-.542-.135-.725-.091-.184-.212-.326-.365-.426-.155-.1-.333-.165-.537-.196-.203-.029-.419-.044-.645-.044h-.26v-.861h3.753l7.337 11.331v-9.079c0-.301-.045-.542-.135-.725-.09-.184-.212-.326-.365-.426-.153-.1-.332-.165-.535-.196-.204-.029-.419-.044-.647-.044h-.269v-.861h5.144v.861h-.259c-.235 0-.453.016-.657.049-.203.035-.382.103-.535.206-.153.104-.273.252-.36.446-.087.193-.13.45-.13.77v12.302h-1.462z"/></g></g></svg>